<?xml version="1.0" encoding="iso-8859-1"?>
<!-- Uploaded to: SVG Repo, www.svgrepo.com, Generator: SVG Repo Mixer Tools -->
<svg fill="#000000" height="800px" width="800px" version="1.1" id="Capa_1" xmlns="http://www.w3.org/2000/svg" xmlns:xlink="http://www.w3.org/1999/xlink" 
	 viewBox="0 0 52 52" xml:space="preserve">
<g>
	<path d="M45.861,28.127c-0.614-1.525-2.226-2.234-3.932-2.985c-1.683-0.741-3.422-1.507-4.077-3.035
		c-1.41-3.292-8.243-9.459-9.886-10.912V8h2.967c0.553,0,1-0.447,1-1V1c0-0.553-0.447-1-1-1h-24c-0.553,0-1,0.447-1,1v6
		c0,0.553,0.447,1,1,1h2.728v3.86c-1.664,2.28-2.657,6.387-2.7,6.567c-0.018,0.076-0.027,0.154-0.027,0.232v13.664
		c0,2.283,1.498,3.817,3.728,3.817c0.806,0,1.416-0.378,1.878-0.926c0.015,0.171,0.023,0.319,0.023,0.438
		c0,2.513,1.389,4.137,3.537,4.137c0.951,0,1.678-0.264,2.218-0.637c0.325,1.123,1.278,2.367,3.102,2.367
		c1.002,0,1.773-0.298,2.347-0.676c0.025,3.723,0.053,7.862,0.053,8.106c0,1.035,1.241,3.049,3.518,3.049
		c1.957,0,3.05-1.837,3.387-2.922c0.026-0.087,0.042-0.176,0.045-0.267l0.623-20.685c0.289,0.182,0.614,0.385,0.975,0.609
		c0.896,0.56,1.847,1.152,2.514,1.597c1.521,1.015,2.723,1.815,4.555,1.815c3.341,0,5.446-0.609,6.259-1.81
		C45.994,29.889,46.269,29.143,45.861,28.127z M7.933,2h22v4h-2.967H10.661H7.933V2z M44.035,29.217
		c-0.303,0.448-1.872,0.931-4.602,0.931c-1.174,0-1.946-0.48-3.445-1.479c-0.68-0.453-1.65-1.059-2.564-1.629
		c-0.979-0.611-2.09-1.305-2.356-1.516c-0.295-0.235-0.698-0.285-1.043-0.125c-0.343,0.159-0.567,0.499-0.579,0.877L28.772,48.59
		C28.633,48.938,28.143,50,27.336,50c-1.127,0-1.501-1.051-1.517-1.051c-0.001,0-0.001,0-0.001,0.001
		c0-0.472-0.094-14.066-0.094-14.066c-0.004-0.528-0.418-0.963-0.945-0.991c-0.528-0.05-0.985,0.356-1.048,0.882l-0.444,3.785
		c-0.185,0.288-0.736,0.961-1.868,0.961c-1.01,0-1.198-0.837-1.24-1.268l-0.628-4.057c-0.08-0.521-0.536-0.894-1.077-0.843
		c-0.524,0.047-0.924,0.493-0.911,1.021l0.063,2.595c-0.107,0.258-0.463,0.821-1.526,0.821c-1.271,0-1.537-1.162-1.537-2.137
		c0-1.21-0.579-4.337-0.644-4.689c-0.093-0.49-0.55-0.857-1.026-0.815c-0.497,0.021-0.903,0.405-0.952,0.9
		c-0.139,1.393-0.755,3.093-1.277,3.093c-1.428,0-1.728-0.988-1.728-1.817V18.78c0.311-1.255,1.285-4.459,2.502-5.947
		c0.146-0.179,0.226-0.402,0.226-0.633V8h14.306v3.648c0,0.29,0.126,0.565,0.345,0.755c2.307,2.004,8.547,7.795,9.703,10.491
		c0.966,2.254,3.167,3.224,5.109,4.078c1.322,0.582,2.572,1.133,2.882,1.901C44.103,29.116,44.055,29.187,44.035,29.217z"/>
</g>
</svg>